<?xml version="1.0" encoding="UTF-8" standalone="no"?>
<svg
   width="1026"
   height="1026"
   viewBox="0 0 1026 1026"
   fill="none"
   version="1.1"
   id="svg20"
   xmlns="http://www.w3.org/2000/svg"
   xmlns:svg="http://www.w3.org/2000/svg">
  <defs
     id="defs20" />
  <path
     style="font-size:172.549px;font-family:Ready;-inkscape-font-specification:Ready;fill:#000000;stroke:#000000;stroke-width:0.647058"
     d="m 690.59634,690.44142 q -10.35294,0 -17.9451,-0.86275 -0.34509,0 -0.51764,-0.17255 h -0.6902 l -0.3451,-0.69019 q -0.86274,-0.51765 -2.07059,-0.51765 l -1.72549,-3.45098 q 0.6902,-2.58823 1.3804,-4.14117 2.07058,-4.14118 5.69411,-8.8 1.89804,-2.24314 2.76079,-2.58824 l 0.34509,-0.17255 q 0.3451,-0.17255 0.3451,-0.17255 0.17255,-0.17255 0.51765,-0.17255 l 4.48627,-1.55294 h 1.55294 q 2.76079,0 4.31373,0.17255 h 4.31372 l 5.00393,-0.86274 q 1.89803,-0.6902 5.00392,-1.20785 l 6.72941,-1.38039 q 1.03529,-0.51764 2.07059,-0.69019 12.42352,-3.79608 20.70587,-10.35294 l 1.55295,-1.0353 q 2.07058,-1.72549 3.10588,-2.76078 2.07059,-1.55294 3.79608,-3.62353 2.41568,-2.76078 2.93333,-5.00392 0.17255,-0.86275 0.17255,-1.72549 0,-2.93333 -2.76079,-6.21176 -2.58823,-3.10589 -7.93725,-4.65883 -5.17647,-1.55294 -11.21569,-2.58823 l -6.72941,-0.86275 q -7.59215,-0.69019 -14.32156,-2.07059 -1.72549,0 -3.79608,0.3451 h -0.6902 l -0.17255,-0.3451 v -0.17254 h 0.17255 v -0.17255 h 0.17255 v -0.17255 q 0.17255,-0.17255 0.17255,-0.3451 0,-0.17255 -0.17255,-0.17255 l -2.58823,-0.6902 q 0.17255,-0.34509 0.17255,-0.34509 0,-0.17255 -0.17255,-0.17255 l 1.38039,-0.17255 q 0.51765,-0.17255 0.51765,-0.51765 l -0.17255,-1.55294 q 0.17255,0.51765 0.17255,1.03529 0.17255,0.51765 1.38039,0.86275 l 0.17255,-0.3451 q 0,-0.17255 -0.51765,-0.3451 -0.3451,-0.34509 -0.51765,-0.86274 l 1.0353,1.03529 -0.3451,-0.69019 v -0.3451 l -0.3451,-0.17255 0.17255,-0.17255 0.3451,0.17255 q -0.17255,-0.51765 -0.3451,-0.86275 0,-0.51764 0,-0.69019 0,-0.51765 0.17255,-1.0353 l 0.3451,-0.86274 q 0.51764,0 0.69019,-0.17255 0.3451,-0.3451 0.6902,-0.3451 0.17255,-0.51764 0.17255,-0.69019 0,-0.17255 0,-0.17255 0.3451,-0.51765 0.3451,-0.6902 0.17255,-0.17255 0.34509,-0.51765 0,-0.34509 -0.17254,-0.86274 l 1.03529,-0.17255 q 0.51765,0 0.86274,-0.6902 0.51765,-0.69019 1.20785,-1.03529 0.86274,-0.3451 1.03529,-1.20784 l -0.51765,-0.17255 -0.86274,1.38039 -0.51765,-0.3451 q -0.3451,0 -0.69019,0.17255 -0.17255,0.17255 -0.3451,0.17255 h -0.51765 l 0.17255,-0.51765 h 0.3451 q 0.86274,-0.51764 1.55294,-1.38039 1.55294,-1.55294 2.76078,-2.07059 7.93726,-5.52156 13.63137,-7.07451 l 6.38432,-3.27843 -0.17255,-0.17254 -0.3451,0.17254 0.86274,-1.20784 q 0.51765,-0.51765 1.3804,-0.69019 -0.17255,0.34509 -0.51765,0.69019 -0.3451,0.17255 -0.3451,0.3451 l 0.3451,0.17255 q 0.17255,0 0.3451,-0.3451 l 0.51764,-0.6902 -0.34509,-0.17254 v -0.3451 q 0.34509,0 0.34509,0.3451 0.3451,0 0.51765,-0.3451 l 0.17255,-0.6902 h 0.3451 q 0.17255,0 0.17255,0.17255 0.3451,0 0.3451,0 0.17254,-0.17255 0.17254,-0.3451 l -0.51764,-0.86274 q 1.20784,-1.20785 2.24313,-1.55294 1.20785,-0.51765 1.72549,-0.86275 4.14118,-2.41568 8.10981,-6.03921 l -0.6902,-0.17255 q -2.24314,-0.17255 -4.65882,-1.38039 h -1.89804 q -0.17255,-0.17255 -1.72549,-0.17255 h -2.07059 q 0,0.17255 0.17255,0.17255 v 0.17254 h 0.17255 q -0.3451,0.51765 -1.03529,0.86275 h -1.20785 q 0.3451,-0.17255 0.3451,-0.3451 0.17255,-0.17255 0.3451,-0.17255 0.17255,0 0.3451,-0.17255 -0.17255,-0.51764 -0.3451,-0.51764 -0.17255,0 -0.17255,0.17255 l -0.51765,0.51764 v 0.86275 l -0.17255,-0.6902 q -0.34509,0 -0.51764,0.51765 l -0.3451,0.17255 -0.3451,-0.17255 0.17255,-0.3451 h -0.3451 l -0.17255,0.17255 q 0,0.51765 0,1.20784 -0.69019,0.51765 -2.41568,0.51765 l -1.20785,-0.17255 -4.31372,0.6902 q -7.41961,1.72549 -8.1098,2.07058 -4.14118,0.6902 -7.41961,2.24314 -0.17255,0 -0.17255,0.17255 l -0.3451,-0.17255 v -0.3451 l -0.86274,0.17255 -1.89804,-2.58823 q -1.72549,-4.14118 -2.76079,-8.97255 -0.69019,-2.41569 -0.86274,-4.65882 v -3.45098 l 0.86274,-1.89804 0.86275,-1.20785 q 1.38039,-0.69019 2.76078,-0.86274 1.55294,-0.17255 3.10589,-0.51765 2.41568,-1.03529 3.62352,-1.38039 l 5.34902,-0.3451 q 3.45098,-0.17255 17.2549,-0.17255 8.62745,0.51765 11.56079,1.0353 7.0745,1.20784 11.56078,4.14117 4.31372,2.07059 6.03921,4.48628 0.6902,1.03529 1.20785,2.41568 0.69019,1.3804 1.03529,2.93334 0.17255,0 0.17255,0 0,0 -0.17255,0.17255 1.20784,0.69019 2.07059,1.72549 0,0 0,0.17254 0,0 0,0 v 0.3451 h 0.17255 v 0.17255 l 0.17255,0.17255 v 0.51765 q 0.34509,0.69019 0.34509,1.72549 0,0.3451 -0.17255,1.20784 0,0.6902 -0.17254,1.89804 -1.0353,2.41569 -2.07059,3.27843 -0.86275,1.03529 -1.89804,2.07059 l -0.17255,0.17255 q -0.3451,0.3451 -0.6902,0.69019 -0.17254,0.3451 -0.69019,0.86275 -0.51765,0.51765 -1.0353,1.20784 -1.72549,2.41569 -7.24705,6.03922 -6.55687,3.96862 -15.18432,7.93725 l -2.58823,1.20784 q 10.69804,1.20785 17.6,5.69412 7.07451,3.96863 10.69804,11.73333 2.58823,5.00392 2.58823,10.87059 0,1.03529 0,2.07059 -0.17255,3.79607 -0.6902,5.86666 -1.20784,4.48628 -6.38431,11.90588 l -2.58823,2.76079 q 0,0.17255 0.17255,0.17255 l 0.69019,-0.6902 q 0.17255,0 0.17255,0.17255 -1.72549,3.45098 -4.48627,5.34902 0.34509,-0.86275 0.86274,-1.55294 0.6902,-0.6902 1.0353,-1.3804 -1.0353,0.17255 -1.3804,1.0353 -0.34509,0.86274 -1.03529,1.55294 v 0.3451 q 0,0 0,0.17255 0,0 0,0 l 0.3451,-0.17255 -0.17255,0.3451 q 0,0.17254 0,0.17254 0,0.17255 -0.17255,0.17255 -0.17255,0 -0.3451,-0.51764 -0.51765,0.51764 -1.03529,1.20784 -0.3451,0.86274 -0.51765,1.03529 v 0.17255 q -0.3451,0.17255 -0.6902,0.3451 -0.34509,0 -0.69019,0 -0.3451,0 -0.51765,0.3451 -0.17255,0.17255 -0.17255,0.3451 l 0.3451,1.38039 q -1.03529,1.03529 -2.24314,2.07059 -2.58823,2.07058 -5.00392,3.27843 -1.20784,0.69019 -2.58823,1.38039 -1.20785,0.86274 -1.89804,1.20784 -0.6902,0.3451 -2.58824,1.38039 l -3.45098,1.89804 -2.76078,1.20785 q -0.6902,0.51764 -1.55294,0.69019 -12.94118,5.69412 -25.88235,7.07451 -0.51765,0.17255 -1.89804,0.17255 z m 68.3294,-113.88234 -0.3451,-0.51765 q -0.51764,-0.86274 -0.86274,-1.89804 0,0.17255 0,0.3451 0,0.3451 0.17255,0.6902 0.3451,0.17255 0.3451,0.3451 0,0 -0.17255,0.17255 0,0.17254 -0.17255,0.34509 v 0.17255 l -0.3451,-0.17255 v 0.17255 z"
     id="text24"
     aria-label="3" />
</svg>
