<?xml version="1.0" encoding="UTF-8" standalone="no"?>
<svg
   width="1026"
   height="1026"
   viewBox="0 0 1026 1026"
   fill="none"
   version="1.1"
   id="svg20"
   sodipodi:docname="zooom3.svg"
   inkscape:version="1.4.3 (0d15f75, 2025-12-25)"
   inkscape:export-filename="zooom3-ring.svg"
   inkscape:export-xdpi="96"
   inkscape:export-ydpi="96"
   xmlns:inkscape="http://www.inkscape.org/namespaces/inkscape"
   xmlns:sodipodi="http://sodipodi.sourceforge.net/DTD/sodipodi-0.dtd"
   xmlns="http://www.w3.org/2000/svg"
   xmlns:svg="http://www.w3.org/2000/svg">
  <defs
     id="defs20" />
  <sodipodi:namedview
     id="namedview20"
     pagecolor="#ffffff"
     bordercolor="#000000"
     borderopacity="0.25"
     inkscape:showpageshadow="2"
     inkscape:pageopacity="0.0"
     inkscape:pagecheckerboard="0"
     inkscape:deskcolor="#d1d1d1"
     showguides="true"
     inkscape:lockguides="false"
     inkscape:zoom="0.40890872"
     inkscape:cx="291.01849"
     inkscape:cy="583.25975"
     inkscape:window-width="1452"
     inkscape:window-height="858"
     inkscape:window-x="0"
     inkscape:window-y="33"
     inkscape:window-maximized="0"
     inkscape:current-layer="svg20">
    <sodipodi:guide
       position="-83.148141,1018.6634"
       orientation="0,-1"
       id="guide21"
       inkscape:locked="false" />
    <sodipodi:guide
       position="511.11651,1092.0294"
       orientation="1,0"
       id="guide22"
       inkscape:locked="false" />
    <sodipodi:guide
       position="-227.43462,509.99242"
       orientation="0,-1"
       id="guide24"
       inkscape:locked="false" />
  </sodipodi:namedview>
  <g
     id="g20"
     inkscape:label="Apple Icon Template"
     sodipodi:insensitive="true"
     style="display:none">
    <rect
       width="1024"
       height="1024"
       fill="white"
       style="fill:#ffffff;fill-opacity:1"
       id="rect1"
       transform="translate(0.53033,0.530334)"
       x="0"
       y="0" />
    <path
       d="M 1024.53,896.53 H 0.53033"
       stroke="#5DB3F9"
       style="stroke:#5db3f9;stroke-opacity:1"
       stroke-width="1.5"
       stroke-miterlimit="10"
       id="path1" />
    <path
       d="M 1024.53,768.53 H 0.53033"
       stroke="#5DB3F9"
       style="stroke:#5db3f9;stroke-opacity:1"
       stroke-width="1.5"
       stroke-miterlimit="10"
       id="path2" />
    <path
       d="M 1024.53,640.53 H 0.53033"
       stroke="#5DB3F9"
       style="stroke:#5db3f9;stroke-opacity:1"
       stroke-width="1.5"
       stroke-miterlimit="10"
       id="path3" />
    <path
       d="M 1024.53,512.53 H 0.53033"
       stroke="#5DB3F9"
       style="stroke:#5db3f9;stroke-opacity:1"
       stroke-width="1.5"
       stroke-miterlimit="10"
       id="path4" />
    <path
       d="M 1024.53,384.53 H 0.53033"
       stroke="#5DB3F9"
       style="stroke:#5db3f9;stroke-opacity:1"
       stroke-width="1.5"
       stroke-miterlimit="10"
       id="path5" />
    <path
       d="M 1024.53,256.53 H 0.53033"
       stroke="#5DB3F9"
       style="stroke:#5db3f9;stroke-opacity:1"
       stroke-width="1.5"
       stroke-miterlimit="10"
       id="path6" />
    <path
       d="M 1024.53,128.53 H 0.53033"
       stroke="#5DB3F9"
       style="stroke:#5db3f9;stroke-opacity:1"
       stroke-width="1.5"
       stroke-miterlimit="10"
       id="path7" />
    <path
       d="M 896.53,1024.53 V 0.530334"
       stroke="#5DB3F9"
       style="stroke:#5db3f9;stroke-opacity:1"
       stroke-width="1.5"
       stroke-miterlimit="10"
       id="path8" />
    <path
       d="M 768.53,1024.53 V 0.530334"
       stroke="#5DB3F9"
       style="stroke:#5db3f9;stroke-opacity:1"
       stroke-width="1.5"
       stroke-miterlimit="10"
       id="path9" />
    <path
       d="M 640.53,1024.53 V 0.530334"
       stroke="#5DB3F9"
       style="stroke:#5db3f9;stroke-opacity:1"
       stroke-width="1.5"
       stroke-miterlimit="10"
       id="path10" />
    <path
       d="M 512.53,1024.53 V 0.530334"
       stroke="#5DB3F9"
       style="stroke:#5db3f9;stroke-opacity:1"
       stroke-width="1.5"
       stroke-miterlimit="10"
       id="path11" />
    <path
       d="M 384.53,1024.53 V 0.530334"
       stroke="#5DB3F9"
       style="stroke:#5db3f9;stroke-opacity:1"
       stroke-width="1.5"
       stroke-miterlimit="10"
       id="path12" />
    <path
       d="M 256.53,1024.53 V 0.530334"
       stroke="#5DB3F9"
       style="stroke:#5db3f9;stroke-opacity:1"
       stroke-width="1.5"
       stroke-miterlimit="10"
       id="path13" />
    <path
       d="M 128.53,1024.53 V 0.530334"
       stroke="#5DB3F9"
       style="stroke:#5db3f9;stroke-opacity:1"
       stroke-width="1.5"
       stroke-miterlimit="10"
       id="path14" />
    <path
       d="M 1024.53,0.530334 0.53033,1024.53"
       stroke="#5DB3F9"
       style="stroke:#5db3f9;stroke-opacity:1"
       stroke-width="1.5"
       stroke-miterlimit="10"
       id="path15" />
    <path
       d="M 1024.53,1024.53 0.53033,0.530334"
       stroke="#5DB3F9"
       style="stroke:#5db3f9;stroke-opacity:1"
       stroke-width="1.5"
       stroke-miterlimit="10"
       id="path16" />
    <path
       d="m 512.53,922.53 c 226.437,0 410,-183.563 410,-410 0,-226.436 -183.563,-410 -410,-410 -226.436,0 -410,183.564 -410,410 0,226.437 183.564,410 410,410 z"
       stroke="#5DB3F9"
       style="stroke:#5db3f9;stroke-opacity:1"
       stroke-width="1.5"
       stroke-miterlimit="10"
       id="path17" />
    <path
       d="m 512.53,768.53 c 141.385,0 256,-114.615 256,-256 0,-141.385 -114.615,-256 -256,-256 -141.385,0 -256,114.615 -256,256 0,141.385 114.615,256 256,256 z"
       stroke="#5DB3F9"
       style="stroke:#5db3f9;stroke-opacity:1"
       stroke-width="1.5"
       stroke-miterlimit="10"
       id="path18" />
    <path
       d="m 512.53,614.53 c 56.333,0 102,-45.667 102,-102 0,-56.333 -45.667,-102 -102,-102 -56.333,0 -102,45.667 -102,102 0,56.333 45.667,102 102,102 z"
       stroke="#5DB3F9"
       style="stroke:#5db3f9;stroke-opacity:1"
       stroke-width="1.5"
       stroke-miterlimit="10"
       id="path19" />
    <path
       d="M 0.530661,0.530665 V 1024.53 H 1024.53 V 0.530665 Z M 1024.53,651.531 c 0,14.24 0,28.48 -0.08,42.73 -0.07,12 -0.21,23.99 -0.53,35.98 -0.71,26.13 -2.25,52.49 -6.89,78.34 -4.71,26.22 -12.4,50.62 -24.529,74.44 -11.92,23.41 -27.49,44.84 -46.07,63.41 -18.58,18.57 -40,34.15 -63.41,46.07 -23.82,12.119 -48.22,19.819 -74.44,24.529 -25.84,4.65 -52.2,6.18 -78.34,6.89 -11.99,0.33 -23.99,0.46 -35.98,0.53 -14.24,0.09 -28.48,0.08 -42.73,0.08 h -278 c -14.24,0 -28.48,0 -42.73,-0.08 -12,-0.07 -23.99,-0.21 -35.98,-0.53 -26.13,-0.71 -52.49,-2.25 -78.34,-6.89 -26.22,-4.71 -50.62,-12.4 -74.44,-24.529 -23.41,-11.92 -44.8403,-27.49 -63.4103,-46.07 -18.57,-18.58 -34.15,-40 -46.07,-63.41 -12.12,-23.82 -19.82,-48.22 -24.53004,-74.44 -4.65,-25.84 -6.18,-52.2 -6.89,-78.34 -0.329999,-11.99 -0.459999,-23.99 -0.529999,-35.98 -0.09,-14.24 -0.08,-28.48 -0.08,-42.73 v -278 c 0,-14.24 0,-28.48 0.08,-42.73 0.07,-12 0.21,-23.99 0.529999,-35.98 0.71,-26.13 2.25,-52.49 6.89,-78.34 4.71004,-26.22 12.40004,-50.62 24.53004,-74.44 11.92,-23.41 27.49,-44.8403 46.07,-63.4103 18.58,-18.57 40.0003,-34.15 63.4103,-46.07 23.82,-12.12 48.22,-19.82 74.44,-24.53004 25.84,-4.65 52.2,-6.17999 78.34,-6.88999 11.99,-0.330005 23.99,-0.460005 35.98,-0.530005 14.24,-0.09 28.48,-0.08 42.73,-0.08 h 278 c 14.24,0 28.48,0 42.73,0.08 12,0.07 23.99,0.21 35.98,0.530005 26.13,0.71 52.49,2.25 78.34,6.88999 26.22,4.71004 50.62,12.40004 74.44,24.53004 23.41,11.92 44.84,27.49 63.41,46.07 18.57,18.58 34.15,40.0003 46.07,63.4103 12.119,23.82 19.819,48.22 24.529,74.44 4.65,25.84 6.18,52.2 6.89,78.34 0.33,11.99 0.46,23.99 0.53,35.98 0.09,14.24 0.08,28.48 0.08,42.73 z"
       fill="#606060"
       style="fill:#606060;fill-opacity:1"
       id="path20" />
  </g>
  <path
     style="baseline-shift:baseline;display:inline;overflow:visible;vector-effect:none;fill:#000000;stroke-miterlimit:10;enable-background:accumulate;stop-color:#000000;stop-opacity:1;opacity:1"
     d="m 512.83008,98.552734 c -228.8886,0 -414.976564,186.087966 -414.976564,414.976566 0,228.88949 186.088044,414.97656 414.976564,414.97656 228.88942,0 414.97656,-186.08714 414.97656,-414.97656 0,-228.88852 -186.08707,-414.976566 -414.97656,-414.976566 z m 0,49.999996 c 201.8674,0 364.97656,163.11011 364.97656,364.97657 0,201.86748 -163.10908,364.97656 -364.97656,364.97656 -201.86646,0 -364.97656,-163.10916 -364.97656,-364.97656 0,-201.86639 163.11017,-364.97657 364.97656,-364.97657 z"
     id="path23" />
  <path
     style="font-size:616.597px;font-family:Ready;-inkscape-font-specification:Ready;fill:#000000;stroke:#000000;stroke-width:10;stroke-dasharray:none"
     d="m 289.48542,749.61839 -0.61659,-0.6166 0.61659,-1.23319 q -3.69958,0 -6.78256,1.23319 l -9.24896,-8.63235 q -4.31618,-11.71535 -3.69958,-33.91284 -0.6166,-15.41492 1.84979,-23.43068 0.6166,-3.69959 3.08299,-6.16597 l 1.23319,-1.8498 0.6166,-1.84979 1.23319,-0.61659 q 2.46639,-3.08299 6.16597,-5.54938 3.08299,-2.46638 6.16597,-4.93277 13.56514,-4.93278 26.51367,-6.78257 v -0.6166 q 2.46639,-3.08298 4.93278,-4.31617 1.23319,-4.31618 0.6166,-4.93278 1.84979,-3.08299 2.46638,-4.31618 1.2332,-1.84979 1.84979,-4.93278 l -0.61659,-2.46638 q 1.84979,-2.46639 4.93277,-3.08299 3.69958,-1.23319 5.54938,-6.16597 2.46638,-4.93277 6.78256,-9.24895 5.54938,-3.69958 7.39917,-9.86555 -3.69959,0 -5.54938,3.69958 -1.23319,3.69958 -3.08298,6.78256 l -1.84979,-0.61659 q -1.2332,0 -2.46639,1.23319 -1.23319,0.6166 -1.84979,1.2332 -0.6166,0.61659 -1.84979,1.84979 -0.6166,0.61659 -1.84979,1.84979 -1.2332,0.61659 -3.08299,0.61659 l 1.2332,-3.08298 2.46638,-1.23319 q 5.54938,-5.54938 10.48215,-12.33194 4.93278,-6.78257 11.71535,-13.56514 l 4.31617,-4.93277 q 43.16179,-47.47797 81.39081,-75.22484 12.33194,-11.09874 20.3477,-17.26471 l 19.1145,-17.88131 -0.61659,-0.6166 q -1.2332,0 -1.2332,0.6166 l -1.23319,0.61659 q 1.84979,-4.31618 4.93277,-8.01576 v -0.6166 q 3.69959,-4.31617 8.01576,-7.39916 -0.61659,3.08299 -3.08298,4.93278 -1.84979,1.84979 -1.84979,3.69958 3.69958,0 4.31618,-3.08299 0.61659,-3.08298 2.46639,-4.31618 l 0.61659,-1.84979 h -1.84979 v -1.23319 h 0.6166 q 1.23319,0 1.84979,1.23319 1.84979,-1.84979 2.46639,-3.69958 l 1.23319,-3.69958 2.46639,-1.23319 h 0.6166 q 0.61659,0 1.23319,0 1.23319,-0.6166 1.23319,-1.2332 0.6166,-0.61659 0.6166,-1.23319 0.6166,-0.6166 -0.6166,-1.2332 -1.23319,-1.23319 -1.23319,-3.08298 8.01576,-9.86555 25.89707,-24.04728 l 29.59666,-28.36346 47.47797,-46.24478 -8.01576,-0.6166 H 580.5192 q -24.04728,0 -65.97588,3.08299 -26.51367,1.84979 -53.64393,2.46639 -9.86556,0 -20.3477,1.84979 -14.79833,0 -23.43069,-1.84979 -7.39916,-0.6166 -14.79833,-3.08299 v -2.46639 h 2.46639 l 0.6166,-2.46638 -1.2332,-5.54938 q 0.6166,1.2332 1.2332,3.69959 0.61659,1.84979 3.08298,2.46638 0.6166,-1.23319 -0.61659,-2.46638 -1.2332,-1.2332 -2.46639,-2.46639 3.69958,4.93277 9.24895,4.93277 6.16597,0 9.86555,1.2332 -1.84979,-1.84979 -3.69958,-1.84979 -1.84979,0 -3.08298,-0.6166 l -0.6166,-1.23319 h 1.23319 q -1.84979,-2.46639 -4.31617,-3.69959 -1.8498,-1.84979 -3.69959,-5.54937 l 1.2332,-1.23319 q -0.6166,0 -0.6166,-0.6166 v -0.6166 h -0.6166 l 0.6166,-0.61659 h 0.6166 q 0,1.23319 1.23319,1.23319 l 0.6166,-4.93278 1.23319,-4.31617 q 0.6166,-0.6166 1.2332,-1.2332 0.61659,-1.23319 1.23319,-3.69958 l 2.46639,0.6166 q 1.23319,0 1.84979,-0.6166 1.23319,-0.6166 1.84979,-0.6166 1.23319,0 1.23319,0.6166 1.2332,-0.6166 1.8498,-1.84979 0.61659,-1.2332 1.23319,-2.46639 0.6166,-1.23319 2.46639,-2.46639 1.84979,-1.23319 1.84979,-2.46639 0.6166,-1.23319 0,-1.84979 2.46639,0 3.69958,0.6166 1.23319,0.6166 1.84979,0.6166 1.2332,0 2.46639,-1.2332 1.84979,-1.23319 3.69958,-2.46638 1.84979,-1.2332 3.69958,-1.2332 1.84979,0 3.69958,-0.6166 1.8498,-1.23319 2.46639,-3.08298 -0.61659,-1.23319 -1.23319,-1.23319 -1.2332,0.61659 -2.46639,1.84979 -1.23319,1.23319 -3.69958,2.46638 -1.2332,-1.84979 -2.46639,-1.84979 -0.6166,-0.61659 -1.23319,-0.61659 l -1.2332,0.61659 q -3.08298,0 -4.31618,-0.61659 0.6166,-1.84979 1.2332,-1.84979 0.6166,-0.6166 1.23319,-0.6166 l 1.2332,0.6166 q 3.69958,-1.2332 8.63235,-3.69959 5.54938,-2.46638 11.71535,-3.08298 l 3.08298,-1.23319 q 32.06304,-8.01577 51.79415,-8.01577 8.63236,0 16.64812,1.2332 4.31618,-0.6166 12.33194,-0.6166 11.09874,0 14.18173,0 3.69958,-0.6166 6.16597,-1.23319 l 0.61659,-1.2332 q -1.23319,0 -1.84979,0.6166 v -0.6166 q 4.31618,-3.69958 8.63236,-3.69958 l 3.69958,0.6166 q -1.84979,1.23319 -3.69958,1.84979 -1.23319,0 -2.46639,0.6166 0.6166,1.84979 1.84979,1.84979 0.6166,0 1.2332,-1.2332 1.23319,-1.23319 3.08298,-1.23319 v -0.6166 h 0.6166 q 0.6166,-0.61659 0,-0.61659 l -0.6166,-1.2332 0.6166,-0.6166 q 0.6166,0.6166 0,2.46639 1.23319,0 1.84979,0 1.23319,-0.61659 1.23319,-0.61659 0.6166,-0.6166 1.2332,-1.2332 l 0.6166,-1.23319 h 1.23319 l 1.23319,0.61659 q -0.61659,0.6166 0,1.2332 1.2332,0 1.84979,0 0.6166,0 0.6166,-0.6166 v -1.23319 l 0.6166,-3.08299 q 6.16597,-1.23319 16.03152,-1.23319 l 5.54937,0.6166 q 16.64812,0 25.89708,-1.2332 l 25.28047,-0.6166 30.82985,0.6166 q 22.81409,1.84979 38.84561,1.84979 l 2.46639,-0.61659 0.6166,2.46638 3.69958,0.6166 4.31618,11.09875 q 0,12.33194 -5.54938,33.29623 -5.54937,19.73111 -11.09874,27.13027 l -1.23319,0.6166 -0.6166,1.23319 q -1.2332,0 -2.46639,1.2332 -1.23319,1.23319 -3.69958,2.46638 -1.84979,1.2332 -4.31618,2.46639 l -6.16597,12.33194 q -8.01576,8.63236 -16.64812,16.03152 -13.56513,9.86555 -25.89707,24.04729 -5.54938,6.16597 -12.33194,12.33194 l -93.10615,78.30781 -68.44226,61.0431 q -44.39499,41.312 -91.25636,80.15761 L 499.745,620.13302 q 74.60823,-14.18173 150.44966,-18.49791 l 28.98006,-2.46638 q 8.63236,0 16.64812,0.61659 8.63236,0 16.03152,1.84979 8.01576,1.2332 16.03152,2.46639 l 4.31618,1.2332 -0.6166,1.23319 0.6166,0.6166 -3.69958,0.61659 q -1.2332,0.6166 -1.2332,1.84979 -0.61659,1.2332 0,3.69959 0.6166,1.84979 1.2332,1.84979 -1.2332,-1.2332 -1.84979,-3.69958 -0.6166,-2.46639 -3.69958,-2.46639 v 0.61659 q -0.6166,0.6166 0.61659,1.8498 1.2332,1.23319 2.46639,3.08298 -4.31618,-5.54937 -11.71534,-5.54937 -6.78257,0 -13.56514,-1.84979 h 0.6166 q 0.6166,2.46638 3.69958,2.46638 3.08299,0 4.31618,0.6166 h 1.2332 v 1.2332 h -1.8498 q 1.8498,2.46638 4.93278,4.31617 3.69958,1.2332 4.31618,5.54938 h -0.6166 l -0.61659,1.23319 1.23319,1.23319 h -0.6166 l -1.23319,-0.61659 q -0.6166,-0.6166 -1.84979,-0.6166 v 2.46639 q -1.2332,4.31618 -3.08299,6.16597 -1.84979,1.84979 -3.08298,2.46639 -0.6166,0.61659 -1.2332,1.23319 -0.61659,0.6166 -1.23319,1.84979 l -2.46639,-0.6166 -4.93277,1.2332 -2.46639,-0.6166 q -1.84979,1.2332 -2.46639,2.46639 0,0.6166 -1.23319,1.84979 -1.2332,1.23319 -3.08299,1.84979 -1.23319,0.6166 -2.46639,1.2332 l -0.61659,0.61659 q -0.6166,0.6166 -1.2332,3.08299 -3.69958,0 -4.93277,-0.6166 -1.2332,-0.6166 -1.84979,-0.6166 -1.8498,0 -4.31618,1.84979 -4.93278,2.46639 -9.86556,3.08299 -2.46638,0.6166 -4.93277,1.23319 -1.84979,0.6166 -3.69958,3.08299 0,0.6166 2.46638,0.6166 0.6166,0 2.46639,-1.2332 2.46639,-1.84979 4.93278,-3.08298 1.84979,2.46638 6.16597,2.46638 0,-0.61659 0.6166,-0.61659 3.69958,0 4.93277,0.61659 -0.6166,1.8498 -3.69958,1.8498 -3.08299,0 -12.33194,3.69958 -6.78257,2.46639 -14.79833,3.69958 l -5.54937,1.23319 q -56.72692,13.56514 -91.25635,13.56514 -5.54938,0.61659 -9.86556,1.84979 h -3.08298 q -1.84979,0.61659 -4.93278,0.61659 -2.46639,0.6166 -4.31618,0.6166 l -20.96429,4.31618 q -0.6166,0.6166 0,0.6166 v 0.61659 q 0.61659,0 0.61659,-0.61659 h 1.2332 q -3.08299,2.46639 -6.78257,4.31618 h -0.6166 q -3.69958,1.84979 -8.63235,1.84979 1.84979,-1.84979 3.69958,-2.46639 2.46639,-0.6166 3.69958,-1.84979 -0.6166,-1.2332 -1.84979,-1.2332 -1.2332,0 -3.08299,1.8498 -1.23319,1.84979 -3.08298,1.84979 h -0.6166 v 1.23319 l 0.6166,1.23319 v 0.6166 q -1.84979,0 -1.2332,-2.46639 -1.23319,0.6166 -2.46638,0.6166 -0.6166,0.6166 -1.2332,1.23319 -0.61659,0.6166 -1.23319,1.2332 l -1.23319,1.23319 h -1.8498 q -0.61659,-0.61659 -1.23319,-0.61659 -0.6166,0 -1.84979,-0.6166 -0.6166,0 -1.23319,1.23319 v 3.69958 q -9.24896,4.31618 -28.98006,6.78257 -41.312,9.24896 -82.624,20.9643 -8.01576,2.46639 -23.43068,6.16597 -26.51367,6.78257 -49.94436,14.79833 z"
     id="text23"
     inkscape:label="Z"
     aria-label="Z" />
  <path
     d="m 717.95482,731.91561 c 56.333,0 102,-45.667 102,-102 0,-56.333 -45.667,-102 -102,-102 -56.333,0 -102,45.667 -102,102 0,56.333 45.667,102 102,102 z"
     stroke="#5DB3F9"
     style="fill:#ffffff;stroke:#5db3f9;stroke-opacity:1;stroke-width:0;stroke-dasharray:none"
     stroke-width="1.5"
     stroke-miterlimit="10"
     id="path24"
     inkscape:label="3 circle" />
  <path
     style="font-size:172.549px;font-family:Ready;-inkscape-font-specification:Ready;fill:#000000;stroke:#000000;stroke-width:0.647058"
     d="m 690.59634,690.44142 q -10.35294,0 -17.9451,-0.86275 -0.34509,0 -0.51764,-0.17255 h -0.6902 l -0.3451,-0.69019 q -0.86274,-0.51765 -2.07059,-0.51765 l -1.72549,-3.45098 q 0.6902,-2.58823 1.3804,-4.14117 2.07058,-4.14118 5.69411,-8.8 1.89804,-2.24314 2.76079,-2.58824 l 0.34509,-0.17255 q 0.3451,-0.17255 0.3451,-0.17255 0.17255,-0.17255 0.51765,-0.17255 l 4.48627,-1.55294 h 1.55294 q 2.76079,0 4.31373,0.17255 h 4.31372 l 5.00393,-0.86274 q 1.89803,-0.6902 5.00392,-1.20785 l 6.72941,-1.38039 q 1.03529,-0.51764 2.07059,-0.69019 12.42352,-3.79608 20.70587,-10.35294 l 1.55295,-1.0353 q 2.07058,-1.72549 3.10588,-2.76078 2.07059,-1.55294 3.79608,-3.62353 2.41568,-2.76078 2.93333,-5.00392 0.17255,-0.86275 0.17255,-1.72549 0,-2.93333 -2.76079,-6.21176 -2.58823,-3.10589 -7.93725,-4.65883 -5.17647,-1.55294 -11.21569,-2.58823 l -6.72941,-0.86275 q -7.59215,-0.69019 -14.32156,-2.07059 -1.72549,0 -3.79608,0.3451 h -0.6902 l -0.17255,-0.3451 v -0.17254 h 0.17255 v -0.17255 h 0.17255 v -0.17255 q 0.17255,-0.17255 0.17255,-0.3451 0,-0.17255 -0.17255,-0.17255 l -2.58823,-0.6902 q 0.17255,-0.34509 0.17255,-0.34509 0,-0.17255 -0.17255,-0.17255 l 1.38039,-0.17255 q 0.51765,-0.17255 0.51765,-0.51765 l -0.17255,-1.55294 q 0.17255,0.51765 0.17255,1.03529 0.17255,0.51765 1.38039,0.86275 l 0.17255,-0.3451 q 0,-0.17255 -0.51765,-0.3451 -0.3451,-0.34509 -0.51765,-0.86274 l 1.0353,1.03529 -0.3451,-0.69019 v -0.3451 l -0.3451,-0.17255 0.17255,-0.17255 0.3451,0.17255 q -0.17255,-0.51765 -0.3451,-0.86275 0,-0.51764 0,-0.69019 0,-0.51765 0.17255,-1.0353 l 0.3451,-0.86274 q 0.51764,0 0.69019,-0.17255 0.3451,-0.3451 0.6902,-0.3451 0.17255,-0.51764 0.17255,-0.69019 0,-0.17255 0,-0.17255 0.3451,-0.51765 0.3451,-0.6902 0.17255,-0.17255 0.34509,-0.51765 0,-0.34509 -0.17254,-0.86274 l 1.03529,-0.17255 q 0.51765,0 0.86274,-0.6902 0.51765,-0.69019 1.20785,-1.03529 0.86274,-0.3451 1.03529,-1.20784 l -0.51765,-0.17255 -0.86274,1.38039 -0.51765,-0.3451 q -0.3451,0 -0.69019,0.17255 -0.17255,0.17255 -0.3451,0.17255 h -0.51765 l 0.17255,-0.51765 h 0.3451 q 0.86274,-0.51764 1.55294,-1.38039 1.55294,-1.55294 2.76078,-2.07059 7.93726,-5.52156 13.63137,-7.07451 l 6.38432,-3.27843 -0.17255,-0.17254 -0.3451,0.17254 0.86274,-1.20784 q 0.51765,-0.51765 1.3804,-0.69019 -0.17255,0.34509 -0.51765,0.69019 -0.3451,0.17255 -0.3451,0.3451 l 0.3451,0.17255 q 0.17255,0 0.3451,-0.3451 l 0.51764,-0.6902 -0.34509,-0.17254 v -0.3451 q 0.34509,0 0.34509,0.3451 0.3451,0 0.51765,-0.3451 l 0.17255,-0.6902 h 0.3451 q 0.17255,0 0.17255,0.17255 0.3451,0 0.3451,0 0.17254,-0.17255 0.17254,-0.3451 l -0.51764,-0.86274 q 1.20784,-1.20785 2.24313,-1.55294 1.20785,-0.51765 1.72549,-0.86275 4.14118,-2.41568 8.10981,-6.03921 l -0.6902,-0.17255 q -2.24314,-0.17255 -4.65882,-1.38039 h -1.89804 q -0.17255,-0.17255 -1.72549,-0.17255 h -2.07059 q 0,0.17255 0.17255,0.17255 v 0.17254 h 0.17255 q -0.3451,0.51765 -1.03529,0.86275 h -1.20785 q 0.3451,-0.17255 0.3451,-0.3451 0.17255,-0.17255 0.3451,-0.17255 0.17255,0 0.3451,-0.17255 -0.17255,-0.51764 -0.3451,-0.51764 -0.17255,0 -0.17255,0.17255 l -0.51765,0.51764 v 0.86275 l -0.17255,-0.6902 q -0.34509,0 -0.51764,0.51765 l -0.3451,0.17255 -0.3451,-0.17255 0.17255,-0.3451 h -0.3451 l -0.17255,0.17255 q 0,0.51765 0,1.20784 -0.69019,0.51765 -2.41568,0.51765 l -1.20785,-0.17255 -4.31372,0.6902 q -7.41961,1.72549 -8.1098,2.07058 -4.14118,0.6902 -7.41961,2.24314 -0.17255,0 -0.17255,0.17255 l -0.3451,-0.17255 v -0.3451 l -0.86274,0.17255 -1.89804,-2.58823 q -1.72549,-4.14118 -2.76079,-8.97255 -0.69019,-2.41569 -0.86274,-4.65882 v -3.45098 l 0.86274,-1.89804 0.86275,-1.20785 q 1.38039,-0.69019 2.76078,-0.86274 1.55294,-0.17255 3.10589,-0.51765 2.41568,-1.03529 3.62352,-1.38039 l 5.34902,-0.3451 q 3.45098,-0.17255 17.2549,-0.17255 8.62745,0.51765 11.56079,1.0353 7.0745,1.20784 11.56078,4.14117 4.31372,2.07059 6.03921,4.48628 0.6902,1.03529 1.20785,2.41568 0.69019,1.3804 1.03529,2.93334 0.17255,0 0.17255,0 0,0 -0.17255,0.17255 1.20784,0.69019 2.07059,1.72549 0,0 0,0.17254 0,0 0,0 v 0.3451 h 0.17255 v 0.17255 l 0.17255,0.17255 v 0.51765 q 0.34509,0.69019 0.34509,1.72549 0,0.3451 -0.17255,1.20784 0,0.6902 -0.17254,1.89804 -1.0353,2.41569 -2.07059,3.27843 -0.86275,1.03529 -1.89804,2.07059 l -0.17255,0.17255 q -0.3451,0.3451 -0.6902,0.69019 -0.17254,0.3451 -0.69019,0.86275 -0.51765,0.51765 -1.0353,1.20784 -1.72549,2.41569 -7.24705,6.03922 -6.55687,3.96862 -15.18432,7.93725 l -2.58823,1.20784 q 10.69804,1.20785 17.6,5.69412 7.07451,3.96863 10.69804,11.73333 2.58823,5.00392 2.58823,10.87059 0,1.03529 0,2.07059 -0.17255,3.79607 -0.6902,5.86666 -1.20784,4.48628 -6.38431,11.90588 l -2.58823,2.76079 q 0,0.17255 0.17255,0.17255 l 0.69019,-0.6902 q 0.17255,0 0.17255,0.17255 -1.72549,3.45098 -4.48627,5.34902 0.34509,-0.86275 0.86274,-1.55294 0.6902,-0.6902 1.0353,-1.3804 -1.0353,0.17255 -1.3804,1.0353 -0.34509,0.86274 -1.03529,1.55294 v 0.3451 q 0,0 0,0.17255 0,0 0,0 l 0.3451,-0.17255 -0.17255,0.3451 q 0,0.17254 0,0.17254 0,0.17255 -0.17255,0.17255 -0.17255,0 -0.3451,-0.51764 -0.51765,0.51764 -1.03529,1.20784 -0.3451,0.86274 -0.51765,1.03529 v 0.17255 q -0.3451,0.17255 -0.6902,0.3451 -0.34509,0 -0.69019,0 -0.3451,0 -0.51765,0.3451 -0.17255,0.17255 -0.17255,0.3451 l 0.3451,1.38039 q -1.03529,1.03529 -2.24314,2.07059 -2.58823,2.07058 -5.00392,3.27843 -1.20784,0.69019 -2.58823,1.38039 -1.20785,0.86274 -1.89804,1.20784 -0.6902,0.3451 -2.58824,1.38039 l -3.45098,1.89804 -2.76078,1.20785 q -0.6902,0.51764 -1.55294,0.69019 -12.94118,5.69412 -25.88235,7.07451 -0.51765,0.17255 -1.89804,0.17255 z m 68.3294,-113.88234 -0.3451,-0.51765 q -0.51764,-0.86274 -0.86274,-1.89804 0,0.17255 0,0.3451 0,0.3451 0.17255,0.6902 0.3451,0.17255 0.3451,0.3451 0,0 -0.17255,0.17255 0,0.17254 -0.17255,0.34509 v 0.17255 l -0.3451,-0.17255 v 0.17255 z"
     id="text24"
     inkscape:label="Z"
     aria-label="3" />
</svg>
