<?xml version="1.0" encoding="UTF-8" standalone="no"?>
<svg
   width="1026"
   height="1026"
   viewBox="0 0 1026 1026"
   fill="none"
   version="1.1"
   id="svg20"
   xmlns="http://www.w3.org/2000/svg"
   xmlns:svg="http://www.w3.org/2000/svg">
  <defs
     id="defs20" />
  <path
     style="font-size:616.597px;font-family:Ready;-inkscape-font-specification:Ready;fill:#000000;stroke:#000000;stroke-width:2.31224"
     d="m 289.48542,749.61839 -0.61659,-0.6166 0.61659,-1.23319 q -3.69958,0 -6.78256,1.23319 l -9.24896,-8.63235 q -4.31618,-11.71535 -3.69958,-33.91284 -0.6166,-15.41492 1.84979,-23.43068 0.6166,-3.69959 3.08299,-6.16597 l 1.23319,-1.8498 0.6166,-1.84979 1.23319,-0.61659 q 2.46639,-3.08299 6.16597,-5.54938 3.08299,-2.46638 6.16597,-4.93277 13.56514,-4.93278 26.51367,-6.78257 v -0.6166 q 2.46639,-3.08298 4.93278,-4.31617 1.23319,-4.31618 0.6166,-4.93278 1.84979,-3.08299 2.46638,-4.31618 1.2332,-1.84979 1.84979,-4.93278 l -0.61659,-2.46638 q 1.84979,-2.46639 4.93277,-3.08299 3.69958,-1.23319 5.54938,-6.16597 2.46638,-4.93277 6.78256,-9.24895 5.54938,-3.69958 7.39917,-9.86555 -3.69959,0 -5.54938,3.69958 -1.23319,3.69958 -3.08298,6.78256 l -1.84979,-0.61659 q -1.2332,0 -2.46639,1.23319 -1.23319,0.6166 -1.84979,1.2332 -0.6166,0.61659 -1.84979,1.84979 -0.6166,0.61659 -1.84979,1.84979 -1.2332,0.61659 -3.08299,0.61659 l 1.2332,-3.08298 2.46638,-1.23319 q 5.54938,-5.54938 10.48215,-12.33194 4.93278,-6.78257 11.71535,-13.56514 l 4.31617,-4.93277 q 43.16179,-47.47797 81.39081,-75.22484 12.33194,-11.09874 20.3477,-17.26471 l 19.1145,-17.88131 -0.61659,-0.6166 q -1.2332,0 -1.2332,0.6166 l -1.23319,0.61659 q 1.84979,-4.31618 4.93277,-8.01576 v -0.6166 q 3.69959,-4.31617 8.01576,-7.39916 -0.61659,3.08299 -3.08298,4.93278 -1.84979,1.84979 -1.84979,3.69958 3.69958,0 4.31618,-3.08299 0.61659,-3.08298 2.46639,-4.31618 l 0.61659,-1.84979 h -1.84979 v -1.23319 h 0.6166 q 1.23319,0 1.84979,1.23319 1.84979,-1.84979 2.46639,-3.69958 l 1.23319,-3.69958 2.46639,-1.23319 h 0.6166 q 0.61659,0 1.23319,0 1.23319,-0.6166 1.23319,-1.2332 0.6166,-0.61659 0.6166,-1.23319 0.6166,-0.6166 -0.6166,-1.2332 -1.23319,-1.23319 -1.23319,-3.08298 8.01576,-9.86555 25.89707,-24.04728 l 29.59666,-28.36346 47.47797,-46.24478 -8.01576,-0.6166 H 580.5192 q -24.04728,0 -65.97588,3.08299 -26.51367,1.84979 -53.64393,2.46639 -9.86556,0 -20.3477,1.84979 -14.79833,0 -23.43069,-1.84979 -7.39916,-0.6166 -14.79833,-3.08299 v -2.46639 h 2.46639 l 0.6166,-2.46638 -1.2332,-5.54938 q 0.6166,1.2332 1.2332,3.69959 0.61659,1.84979 3.08298,2.46638 0.6166,-1.23319 -0.61659,-2.46638 -1.2332,-1.2332 -2.46639,-2.46639 3.69958,4.93277 9.24895,4.93277 6.16597,0 9.86555,1.2332 -1.84979,-1.84979 -3.69958,-1.84979 -1.84979,0 -3.08298,-0.6166 l -0.6166,-1.23319 h 1.23319 q -1.84979,-2.46639 -4.31617,-3.69959 -1.8498,-1.84979 -3.69959,-5.54937 l 1.2332,-1.23319 q -0.6166,0 -0.6166,-0.6166 v -0.6166 h -0.6166 l 0.6166,-0.61659 h 0.6166 q 0,1.23319 1.23319,1.23319 l 0.6166,-4.93278 1.23319,-4.31617 q 0.6166,-0.6166 1.2332,-1.2332 0.61659,-1.23319 1.23319,-3.69958 l 2.46639,0.6166 q 1.23319,0 1.84979,-0.6166 1.23319,-0.6166 1.84979,-0.6166 1.23319,0 1.23319,0.6166 1.2332,-0.6166 1.8498,-1.84979 0.61659,-1.2332 1.23319,-2.46639 0.6166,-1.23319 2.46639,-2.46639 1.84979,-1.23319 1.84979,-2.46639 0.6166,-1.23319 0,-1.84979 2.46639,0 3.69958,0.6166 1.23319,0.6166 1.84979,0.6166 1.2332,0 2.46639,-1.2332 1.84979,-1.23319 3.69958,-2.46638 1.84979,-1.2332 3.69958,-1.2332 1.84979,0 3.69958,-0.6166 1.8498,-1.23319 2.46639,-3.08298 -0.61659,-1.23319 -1.23319,-1.23319 -1.2332,0.61659 -2.46639,1.84979 -1.23319,1.23319 -3.69958,2.46638 -1.2332,-1.84979 -2.46639,-1.84979 -0.6166,-0.61659 -1.23319,-0.61659 l -1.2332,0.61659 q -3.08298,0 -4.31618,-0.61659 0.6166,-1.84979 1.2332,-1.84979 0.6166,-0.6166 1.23319,-0.6166 l 1.2332,0.6166 q 3.69958,-1.2332 8.63235,-3.69959 5.54938,-2.46638 11.71535,-3.08298 l 3.08298,-1.23319 q 32.06304,-8.01577 51.79415,-8.01577 8.63236,0 16.64812,1.2332 4.31618,-0.6166 12.33194,-0.6166 11.09874,0 14.18173,0 3.69958,-0.6166 6.16597,-1.23319 l 0.61659,-1.2332 q -1.23319,0 -1.84979,0.6166 v -0.6166 q 4.31618,-3.69958 8.63236,-3.69958 l 3.69958,0.6166 q -1.84979,1.23319 -3.69958,1.84979 -1.23319,0 -2.46639,0.6166 0.6166,1.84979 1.84979,1.84979 0.6166,0 1.2332,-1.2332 1.23319,-1.23319 3.08298,-1.23319 v -0.6166 h 0.6166 q 0.6166,-0.61659 0,-0.61659 l -0.6166,-1.2332 0.6166,-0.6166 q 0.6166,0.6166 0,2.46639 1.23319,0 1.84979,0 1.23319,-0.61659 1.23319,-0.61659 0.6166,-0.6166 1.2332,-1.2332 l 0.6166,-1.23319 h 1.23319 l 1.23319,0.61659 q -0.61659,0.6166 0,1.2332 1.2332,0 1.84979,0 0.6166,0 0.6166,-0.6166 v -1.23319 l 0.6166,-3.08299 q 6.16597,-1.23319 16.03152,-1.23319 l 5.54937,0.6166 q 16.64812,0 25.89708,-1.2332 l 25.28047,-0.6166 30.82985,0.6166 q 22.81409,1.84979 38.84561,1.84979 l 2.46639,-0.61659 0.6166,2.46638 3.69958,0.6166 4.31618,11.09875 q 0,12.33194 -5.54938,33.29623 -5.54937,19.73111 -11.09874,27.13027 l -1.23319,0.6166 -0.6166,1.23319 q -1.2332,0 -2.46639,1.2332 -1.23319,1.23319 -3.69958,2.46638 -1.84979,1.2332 -4.31618,2.46639 l -6.16597,12.33194 q -8.01576,8.63236 -16.64812,16.03152 -13.56513,9.86555 -25.89707,24.04729 -5.54938,6.16597 -12.33194,12.33194 l -93.10615,78.30781 -68.44226,61.0431 q -44.39499,41.312 -91.25636,80.15761 L 499.745,620.13302 q 74.60823,-14.18173 150.44966,-18.49791 l 28.98006,-2.46638 q 8.63236,0 16.64812,0.61659 8.63236,0 16.03152,1.84979 8.01576,1.2332 16.03152,2.46639 l 4.31618,1.2332 -0.6166,1.23319 0.6166,0.6166 -3.69958,0.61659 q -1.2332,0.6166 -1.2332,1.84979 -0.61659,1.2332 0,3.69959 0.6166,1.84979 1.2332,1.84979 -1.2332,-1.2332 -1.84979,-3.69958 -0.6166,-2.46639 -3.69958,-2.46639 v 0.61659 q -0.6166,0.6166 0.61659,1.8498 1.2332,1.23319 2.46639,3.08298 -4.31618,-5.54937 -11.71534,-5.54937 -6.78257,0 -13.56514,-1.84979 h 0.6166 q 0.6166,2.46638 3.69958,2.46638 3.08299,0 4.31618,0.6166 h 1.2332 v 1.2332 h -1.8498 q 1.8498,2.46638 4.93278,4.31617 3.69958,1.2332 4.31618,5.54938 h -0.6166 l -0.61659,1.23319 1.23319,1.23319 h -0.6166 l -1.23319,-0.61659 q -0.6166,-0.6166 -1.84979,-0.6166 v 2.46639 q -1.2332,4.31618 -3.08299,6.16597 -1.84979,1.84979 -3.08298,2.46639 -0.6166,0.61659 -1.2332,1.23319 -0.61659,0.6166 -1.23319,1.84979 l -2.46639,-0.6166 -4.93277,1.2332 -2.46639,-0.6166 q -1.84979,1.2332 -2.46639,2.46639 0,0.6166 -1.23319,1.84979 -1.2332,1.23319 -3.08299,1.84979 -1.23319,0.6166 -2.46639,1.2332 l -0.61659,0.61659 q -0.6166,0.6166 -1.2332,3.08299 -3.69958,0 -4.93277,-0.6166 -1.2332,-0.6166 -1.84979,-0.6166 -1.8498,0 -4.31618,1.84979 -4.93278,2.46639 -9.86556,3.08299 -2.46638,0.6166 -4.93277,1.23319 -1.84979,0.6166 -3.69958,3.08299 0,0.6166 2.46638,0.6166 0.6166,0 2.46639,-1.2332 2.46639,-1.84979 4.93278,-3.08298 1.84979,2.46638 6.16597,2.46638 0,-0.61659 0.6166,-0.61659 3.69958,0 4.93277,0.61659 -0.6166,1.8498 -3.69958,1.8498 -3.08299,0 -12.33194,3.69958 -6.78257,2.46639 -14.79833,3.69958 l -5.54937,1.23319 q -56.72692,13.56514 -91.25635,13.56514 -5.54938,0.61659 -9.86556,1.84979 h -3.08298 q -1.84979,0.61659 -4.93278,0.61659 -2.46639,0.6166 -4.31618,0.6166 l -20.96429,4.31618 q -0.6166,0.6166 0,0.6166 v 0.61659 q 0.61659,0 0.61659,-0.61659 h 1.2332 q -3.08299,2.46639 -6.78257,4.31618 h -0.6166 q -3.69958,1.84979 -8.63235,1.84979 1.84979,-1.84979 3.69958,-2.46639 2.46639,-0.6166 3.69958,-1.84979 -0.6166,-1.2332 -1.84979,-1.2332 -1.2332,0 -3.08299,1.8498 -1.23319,1.84979 -3.08298,1.84979 h -0.6166 v 1.23319 l 0.6166,1.23319 v 0.6166 q -1.84979,0 -1.2332,-2.46639 -1.23319,0.6166 -2.46638,0.6166 -0.6166,0.6166 -1.2332,1.23319 -0.61659,0.6166 -1.23319,1.2332 l -1.23319,1.23319 h -1.8498 q -0.61659,-0.61659 -1.23319,-0.61659 -0.6166,0 -1.84979,-0.6166 -0.6166,0 -1.23319,1.23319 v 3.69958 q -9.24896,4.31618 -28.98006,6.78257 -41.312,9.24896 -82.624,20.9643 -8.01576,2.46639 -23.43068,6.16597 -26.51367,6.78257 -49.94436,14.79833 z"
     id="text23"
     aria-label="Z" />
</svg>
